<?xml version="1.0" standalone="no"?>
<!DOCTYPE svg PUBLIC "-//W3C//DTD SVG 20010904//EN"
 "http://www.w3.org/TR/2001/REC-SVG-20010904/DTD/svg10.dtd">
<svg version="1.0" width="150" height="150"  xmlns="http://www.w3.org/2000/svg"
  viewBox="0 0 500.000000 500.000000"
 preserveAspectRatio="xMidYMid meet">

<g transform="translate(0.000000,500.000000) scale(0.100000,-0.100000)"
fill="#008000" stroke="none">
<path d="M2382 4909 c-272 -40 -528 -255 -616 -519 -81 -246 -44 -490 109
-705 102 -144 269 -255 448 -300 92 -22 262 -22 353 0 286 71 512 297 580 582
24 98 22 266 -5 366 -66 249 -263 462 -502 541 -129 43 -237 53 -367 35z m268
-135 c151 -35 306 -145 396 -280 90 -136 125 -328 90 -488 -55 -246 -260 -450
-501 -501 -319 -67 -636 113 -750 425 -35 98 -44 241 -21 349 50 234 249 439
481 495 80 19 225 19 305 0z"/>
<path d="M2561 4215 l-176 -174 -66 64 c-37 36 -75 65 -86 65 -28 0 -63 -37
-63 -67 0 -40 175 -213 215 -213 25 0 62 32 237 208 163 162 208 213 208 233
0 33 -29 59 -65 59 -24 0 -59 -30 -204 -175z"/>
<path d="M958 3530 c-28 -15 -86 -87 -240 -297 -113 -153 -300 -408 -417 -566
-117 -159 -221 -303 -232 -320 -23 -39 -25 -107 -3 -153 15 -31 238 -219 383
-322 75 -54 153 -52 221 4 l30 26 36 -27 c19 -15 39 -38 45 -52 5 -13 9 -77 9
-141 l0 -116 -69 -90 c-97 -129 -114 -165 -119 -261 -3 -65 0 -91 17 -136 30
-79 88 -141 169 -181 59 -29 76 -33 148 -33 l82 0 5 -47 c22 -186 217 -318
390 -265 48 15 48 15 58 -9 5 -14 9 -31 9 -38 0 -7 13 -32 28 -57 76 -120 218
-176 343 -135 28 10 52 16 53 14 1 -2 9 -23 16 -48 18 -57 96 -137 165 -169
116 -55 260 -22 347 79 l42 48 50 -26 c70 -36 187 -38 261 -4 103 47 172 146
182 261 l5 56 53 2 c145 4 262 121 273 274 l5 67 48 5 c74 9 143 44 194 98 62
66 87 125 89 208 l1 66 68 12 c121 20 191 70 238 168 23 48 29 74 29 127 0 78
-15 69 150 92 101 15 105 14 138 -6 64 -40 103 -31 367 87 132 59 252 115 266
126 35 24 59 77 59 127 0 29 -55 177 -199 534 -420 1040 -403 1004 -479 1029
-55 18 -97 7 -308 -86 -327 -143 -343 -155 -354 -259 -5 -48 -6 -49 -75 -89
-103 -59 -119 -59 -605 12 -228 34 -437 61 -465 61 -111 0 -223 -46 -319 -131
l-54 -49 -243 0 c-235 0 -244 1 -276 23 -31 21 -33 24 -27 68 12 89 -10 118
-215 280 -100 79 -196 152 -214 162 -41 22 -113 21 -159 -3z m277 -244 c120
-94 181 -150 183 -164 2 -16 -54 -100 -194 -289 -352 -477 -559 -757 -598
-811 -48 -66 -65 -76 -97 -54 -85 58 -359 285 -359 296 0 7 91 136 202 287
110 151 244 333 297 404 297 405 352 475 369 474 9 0 98 -64 197 -143z m3018
121 c18 -45 249 -617 398 -984 106 -261 176 -448 173 -458 -8 -20 -32 -32
-281 -140 -151 -65 -206 -85 -218 -77 -10 5 -61 117 -117 253 -325 797 -478
1184 -473 1198 6 21 472 230 496 224 10 -3 20 -10 22 -16z m-1319 -414 c519
-77 520 -77 647 -4 40 23 73 40 74 39 3 -4 327 -803 424 -1043 44 -110 78
-202 75 -204 -9 -10 -185 -31 -260 -31 -86 0 -160 17 -236 56 -26 13 -238 177
-471 363 -292 233 -439 344 -473 357 -32 13 -74 19 -124 19 -71 0 -82 -3 -195
-57 -66 -32 -144 -63 -174 -69 -112 -24 -307 7 -362 57 -25 22 -33 68 -17 98
20 38 431 422 477 445 43 22 99 38 141 40 14 1 227 -29 474 -66z m-1419 -85
l47 -33 195 -5 195 -5 -107 -104 c-59 -57 -113 -119 -121 -137 -32 -77 -10
-187 48 -241 61 -58 204 -98 343 -97 122 1 197 20 318 80 106 54 167 64 231
40 28 -11 199 -141 462 -352 449 -359 493 -388 640 -422 l79 -18 0 -60 c0 -51
-4 -66 -29 -98 -53 -70 -143 -93 -221 -57 -22 10 -177 120 -344 245 -206 153
-313 226 -330 226 -34 0 -61 -27 -61 -62 0 -33 3 -35 353 -293 126 -93 244
-187 260 -208 25 -30 32 -49 35 -97 9 -121 -71 -210 -190 -210 -34 0 -72 7
-89 15 -16 9 -143 98 -282 197 -139 100 -264 188 -278 195 -52 26 -99 -15 -85
-72 4 -16 88 -81 275 -214 148 -106 277 -204 287 -219 10 -15 20 -52 22 -82 4
-64 -19 -108 -78 -148 -29 -20 -45 -23 -92 -20 -63 5 -35 -14 -363 243 -110
86 -214 164 -232 172 -29 15 -34 15 -58 -1 -22 -14 -26 -24 -23 -54 3 -35 13
-44 193 -185 261 -203 285 -224 306 -271 23 -52 23 -90 0 -141 -37 -83 -122
-125 -205 -104 -65 16 -73 30 -50 81 14 31 19 66 19 128 0 77 -3 90 -31 140
-55 97 -150 152 -268 154 l-51 1 -7 59 c-17 133 -125 232 -264 244 l-61 5 -5
66 c-9 118 -77 219 -183 271 -39 19 -67 24 -126 25 l-77 0 -6 60 c-23 222
-247 356 -461 275 -16 -6 -51 -27 -77 -46 l-48 -34 0 28 c0 80 -40 153 -118
213 l-33 25 251 339 c138 187 292 397 343 467 51 70 95 127 99 127 4 1 28 -14
53 -31z m-223 -1224 c46 -32 83 -88 93 -141 13 -71 -16 -127 -166 -318 -77
-98 -156 -190 -175 -204 -50 -35 -145 -41 -201 -13 -75 39 -123 115 -123 198
0 49 36 107 182 295 159 205 182 222 285 217 50 -3 71 -10 105 -34z m339 -325
c110 -34 174 -153 136 -257 -20 -55 -296 -391 -340 -413 -77 -40 -174 -22
-231 41 -57 63 -67 138 -30 212 23 45 282 375 308 391 23 16 78 34 105 36 7 1
31 -4 52 -10z m358 -369 c44 -12 97 -64 112 -108 23 -69 6 -109 -109 -264
-121 -162 -152 -188 -224 -188 -112 0 -194 97 -174 206 5 24 43 80 127 184
141 176 175 197 268 170z m374 -314 c71 -29 117 -121 98 -193 -12 -43 -90
-174 -130 -216 -38 -41 -73 -57 -129 -57 -111 0 -201 113 -173 218 15 54 146
221 191 244 42 21 99 23 143 4z"/>
</g>
</svg>
